<?xml version="1.0" standalone="no"?>
<!DOCTYPE svg PUBLIC "-//W3C//DTD SVG 20010904//EN"
 "http://www.w3.org/TR/2001/REC-SVG-20010904/DTD/svg10.dtd">
<svg version="1.0" xmlns="http://www.w3.org/2000/svg"
 width="4491.000000pt" height="1552.000000pt" viewBox="0 0 4491.000000 1552.000000"
 preserveAspectRatio="xMidYMid meet">

<g transform="translate(0.000000,1552.000000) scale(0.100000,-0.100000)"
fill="#000000" stroke="none">
<path d="M2195 15499 c-101 -13 -286 -56 -390 -91 -561 -187 -1015 -606 -1250
-1153 -79 -186 -135 -402 -155 -600 -8 -79 -10 -1778 -8 -5965 4 -5537 5
-5860 21 -5940 63 -303 150 -533 286 -754 325 -528 890 -889 1511 -966 58 -7
6265 -10 20177 -10 18064 0 20104 2 20210 15 585 77 1113 405 1443 895 178
265 293 569 335 883 13 105 15 748 15 5952 0 5204 -2 5847 -15 5952 -77 584
-405 1113 -893 1442 -268 180 -569 294 -885 336 -106 13 -2143 15 -20225 14
-11723 -1 -20136 -5 -20177 -10z m8389 -2015 c9 -25 6 -361 -5 -439 -5 -38
-10 -83 -12 -100 -2 -16 -6 -37 -9 -45 -3 -8 -11 -46 -18 -85 -15 -89 -50
-227 -60 -240 -4 -5 -13 -28 -19 -50 -25 -82 -55 -153 -118 -280 -104 -207
-202 -361 -320 -501 -24 -28 -43 -55 -43 -61 0 -5 -60 -70 -133 -144 -114
-115 -206 -192 -403 -335 -34 -25 -257 -141 -314 -163 -41 -16 -41 -16 -60
-24 -36 -14 -160 -46 -225 -57 -38 -7 -79 -17 -89 -22 -11 -6 -109 -13 -218
-16 l-198 -5 0 35 c0 19 -3 37 -6 40 -6 7 -7 297 0 318 2 8 7 51 11 95 7 95
41 278 59 320 7 17 25 68 40 115 28 87 45 128 110 260 169 346 455 694 750
914 113 84 242 161 406 241 197 97 200 99 290 130 41 15 82 29 90 32 8 4 19 5
24 4 4 -1 13 3 20 8 27 23 271 68 377 70 53 1 68 -2 73 -15z m14216 -2644 l0
-1330 -165 0 -165 0 0 1330 0 1330 165 0 165 0 0 -1330z m5730 143 c0 -654 3
-1252 7 -1330 l6 -143 -145 0 c-169 0 -158 -9 -158 125 0 44 -3 104 -7 133
l-6 52 -39 -59 c-78 -120 -234 -228 -383 -266 -265 -68 -550 12 -728 205 -151
163 -232 374 -244 636 -28 605 348 1054 858 1021 186 -12 327 -74 439 -194
l70 -75 0 541 0 541 165 0 165 0 0 -1187z m7630 622 c0 -311 3 -565 8 -565 4
0 18 19 32 41 31 52 121 134 194 178 31 18 95 47 143 64 78 28 101 31 203 32
100 0 126 -4 200 -28 206 -68 345 -224 412 -463 22 -77 22 -95 26 -716 l3
-638 -165 0 -166 0 0 554 c0 621 -4 676 -64 801 -39 84 -98 144 -174 182 -53
26 -66 28 -177 28 -117 0 -122 -1 -196 -36 -138 -66 -245 -207 -269 -354 -6
-34 -10 -303 -10 -617 l0 -558 -165 0 -165 0 0 1323 c0 728 3 1327 7 1330 3 4
78 7 165 7 l158 0 0 -565z m-21650 430 c208 -30 397 -94 538 -182 98 -60 245
-205 310 -305 126 -195 184 -418 183 -713 0 -375 -85 -647 -280 -894 -178
-226 -453 -366 -839 -427 -185 -29 -722 -28 -914 3 l-38 6 0 1238 c0 681 3
1240 8 1243 12 7 269 37 404 46 166 12 499 4 628 -15z m20597 -460 l-2 -255
238 0 237 0 0 -125 0 -125 -235 -2 -236 -3 1 -546 c0 -468 3 -554 16 -600 23
-77 49 -115 101 -146 38 -22 58 -27 122 -27 42 -1 102 2 133 7 68 8 64 16 72
-136 5 -114 8 -111 -113 -133 -91 -16 -218 -18 -292 -4 -130 25 -251 113 -301
220 -59 127 -61 142 -65 783 l-5 587 -139 0 -139 0 0 125 0 125 140 0 140 0 2
217 3 217 155 42 c85 23 158 39 162 37 4 -2 7 -118 5 -258z m-18202 -244 c320
-83 539 -327 617 -686 19 -89 17 -362 -4 -455 -66 -300 -221 -504 -473 -626
-144 -70 -223 -87 -405 -88 -217 -1 -333 32 -495 139 -186 123 -307 311 -361
561 -25 116 -23 340 3 464 82 383 333 635 701 705 107 20 311 13 417 -14z
m4630 14 c39 -8 108 -33 154 -56 160 -79 267 -219 323 -424 22 -78 22 -96 26
-717 l3 -638 -166 0 -165 0 0 564 c0 621 -4 673 -60 791 -42 88 -90 139 -168
177 -64 32 -71 33 -187 33 -119 0 -122 -1 -196 -37 -120 -60 -209 -161 -251
-288 -21 -63 -22 -81 -26 -652 l-3 -588 -160 0 c-119 0 -161 3 -164 13 -3 6
-6 414 -7 905 l-3 892 141 0 142 0 6 -31 c3 -17 6 -55 6 -84 0 -71 11 -175 19
-175 4 0 15 16 26 35 10 20 51 67 91 105 161 153 400 221 619 175z m2725 -10
c313 -76 532 -296 622 -625 20 -75 23 -107 23 -285 0 -220 -12 -290 -76 -439
-140 -329 -491 -535 -873 -513 -389 23 -684 265 -782 643 -35 134 -44 346 -20
484 70 403 327 673 709 746 90 17 306 11 397 -11z m1716 14 c268 -37 441 -190
515 -455 21 -76 22 -103 29 -664 4 -322 9 -592 13 -600 3 -8 8 -39 12 -67 l6
-53 -150 0 -149 0 -5 33 c-4 17 -9 66 -13 107 -4 41 -8 78 -10 81 -2 4 -37
-26 -78 -66 -263 -259 -719 -259 -928 -1 -73 91 -100 169 -106 301 -8 195 37
318 162 441 158 155 416 241 790 260 l129 7 -5 87 c-9 153 -76 258 -203 317
-57 27 -67 28 -210 28 -169 0 -243 -16 -383 -81 -42 -19 -79 -31 -83 -27 -14
15 -70 187 -65 200 8 21 160 89 261 118 152 42 322 55 471 34z m4899 -18 c383
-101 615 -415 632 -856 19 -507 -233 -869 -683 -982 -50 -12 -111 -17 -219
-17 -180 0 -244 14 -390 84 -176 86 -289 198 -375 375 -81 165 -95 234 -94
470 0 184 2 208 26 297 94 346 342 577 691 644 102 19 309 12 412 -15z m2055
3 c220 -66 367 -228 432 -475 21 -82 22 -102 25 -716 l4 -633 -165 0 -165 0
-4 593 c-3 512 -6 600 -20 655 -37 139 -112 239 -217 289 -78 38 -219 44 -318
14 -158 -48 -281 -187 -318 -360 -11 -52 -14 -184 -14 -628 l0 -563 -164 0
-164 0 -4 888 c-2 488 -6 894 -8 902 -4 13 17 15 141 18 l146 3 7 -62 c3 -34
7 -87 7 -118 1 -31 4 -68 8 -83 6 -27 7 -26 56 39 92 121 244 215 404 249 83
17 256 11 331 -12z m5825 1 c195 -51 336 -167 435 -355 76 -147 119 -366 105
-536 l-7 -84 -634 0 -634 0 0 -52 c0 -29 9 -90 20 -135 49 -206 172 -343 367
-409 65 -22 101 -28 214 -32 185 -6 338 19 501 83 14 5 20 -11 43 -110 16 -66
24 -120 19 -125 -17 -17 -189 -68 -289 -86 -154 -28 -440 -26 -560 4 -404 101
-635 428 -635 901 0 491 274 867 687 946 96 18 282 13 368 -10z m-20786 -52
c130 -491 300 -1157 328 -1285 21 -92 41 -164 45 -162 4 3 8 13 8 23 0 36 124
449 283 946 l163 510 141 3 c128 2 142 1 147 -15 3 -10 69 -223 146 -473 153
-493 237 -779 265 -905 10 -44 21 -83 25 -88 3 -4 23 71 43 165 20 95 102 405
182 688 80 283 153 541 162 573 l16 57 164 0 164 0 -7 -22 c-9 -32 -530 -1648
-555 -1726 l-21 -63 -151 3 -152 3 -108 335 c-202 628 -263 834 -322 1085 -6
25 -15 0 -50 -140 -48 -188 -96 -339 -287 -902 l-130 -383 -152 0 -151 0 -269
893 c-148 490 -271 898 -274 905 -3 9 34 12 167 12 l170 0 10 -37z m-9249
-479 c139 -16 184 -24 376 -68 277 -63 633 -212 811 -340 28 -20 53 -36 57
-36 13 0 160 -116 256 -202 119 -107 360 -379 360 -407 0 -6 4 -11 9 -11 5 0
11 -9 14 -20 4 -15 -9 -29 -58 -65 -35 -25 -68 -45 -74 -45 -6 0 -11 -4 -11
-10 0 -5 -5 -10 -10 -10 -15 0 -128 -89 -255 -201 -177 -155 -338 -341 -437
-504 -100 -163 -228 -436 -228 -486 0 -8 -5 -20 -12 -27 -7 -7 -8 -12 -4 -12
5 0 4 -6 -2 -13 -17 -20 -81 -322 -87 -408 -1 -20 -5 -40 -8 -45 -23 -39 -12
-614 13 -663 4 -9 16 -68 26 -131 9 -63 26 -144 36 -180 11 -36 21 -69 22 -75
2 -5 6 -17 9 -25 4 -8 18 -51 32 -95 30 -93 147 -335 201 -415 20 -30 45 -70
56 -89 53 -94 256 -322 398 -449 108 -97 221 -188 253 -206 12 -6 56 -33 97
-60 41 -27 86 -56 100 -65 14 -9 71 -39 127 -66 82 -40 103 -54 103 -71 0 -29
-148 -452 -168 -478 -5 -6 -17 -33 -27 -61 -9 -27 -27 -70 -40 -95 -12 -25
-54 -112 -94 -195 -89 -184 -195 -380 -273 -502 -32 -51 -58 -94 -58 -97 0 -3
-36 -57 -80 -120 -44 -63 -80 -117 -80 -121 0 -3 -13 -23 -28 -43 -86 -111
-209 -277 -219 -295 -34 -59 -236 -290 -373 -427 -235 -234 -337 -306 -615
-431 -82 -37 -224 -62 -381 -67 -208 -6 -387 18 -568 78 -49 17 -94 30 -99 30
-13 0 -261 96 -322 125 -114 53 -381 130 -535 155 -41 6 -84 16 -94 22 -23 12
-386 24 -413 13 -10 -4 -35 -7 -56 -6 -21 2 -43 -2 -50 -7 -7 -5 -40 -12 -75
-16 -79 -9 -226 -41 -300 -65 -31 -11 -88 -29 -127 -41 -38 -12 -122 -42 -185
-67 -63 -24 -124 -48 -135 -52 -11 -5 -24 -9 -30 -10 -5 -2 -15 -6 -20 -11 -6
-5 -55 -23 -110 -40 -55 -17 -113 -37 -130 -45 -16 -7 -88 -26 -160 -41 -120
-27 -146 -29 -335 -29 -228 1 -291 12 -434 78 -187 85 -297 160 -458 307 -47
44 -90 80 -94 80 -13 0 -124 113 -124 126 0 6 -10 19 -21 30 -51 45 -328 379
-340 409 -4 9 -135 188 -211 287 -15 20 -28 39 -28 42 0 4 -36 58 -80 122 -44
63 -80 119 -80 123 0 4 -13 26 -30 49 -50 69 -279 486 -306 557 -6 17 -32 74
-58 128 -26 54 -56 124 -68 155 -11 31 -24 62 -29 67 -10 14 -90 222 -131 340
-16 50 -34 95 -38 100 -4 6 -22 60 -40 120 -17 61 -36 115 -41 121 -5 6 -6 14
-2 17 3 4 1 12 -4 19 -6 7 -25 69 -42 138 -18 69 -35 132 -38 140 -4 8 -7 20
-8 25 0 6 -3 15 -7 20 -3 6 -20 82 -37 170 -18 88 -36 169 -41 180 -13 30 -70
418 -84 580 -3 28 -10 100 -16 160 -16 157 -9 867 9 888 7 9 12 33 10 54 -1
21 1 45 4 53 3 8 12 71 21 140 9 69 25 163 35 210 21 95 87 347 98 370 3 8 7
17 8 20 1 3 9 22 18 44 9 21 17 42 17 47 0 5 12 37 26 72 14 34 27 67 28 72 1
6 14 35 28 65 14 30 33 71 42 90 36 77 192 350 206 360 3 3 9 12 12 20 9 24
126 179 189 252 33 36 59 70 59 74 0 12 222 234 233 234 5 0 32 20 59 45 68
61 233 184 283 211 22 11 58 33 79 48 76 51 367 189 466 221 30 10 69 23 85
30 64 27 276 74 455 101 130 20 440 20 550 1 233 -41 623 -157 865 -258 17 -6
35 -13 40 -15 6 -1 46 -17 90 -33 44 -17 85 -31 90 -31 6 0 22 -7 37 -14 31
-17 189 -66 209 -66 8 0 27 -7 43 -15 15 -8 32 -13 36 -10 5 3 11 1 14 -4 3
-4 42 -14 86 -21 65 -10 93 -10 143 0 34 7 67 16 72 19 6 3 15 6 20 6 6 1 17
4 25 8 8 3 62 20 120 38 58 18 112 36 120 40 8 5 58 22 110 39 52 17 101 33
108 35 7 3 14 3 16 2 1 -1 9 3 17 10 29 24 543 197 663 224 50 10 100 24 111
29 18 8 224 44 305 53 99 11 417 6 540 -9z m18730 -2639 c199 -26 378 -76 518
-142 58 -27 72 -38 67 -51 -4 -9 -35 -101 -70 -205 -35 -103 -66 -191 -69
-196 -3 -4 -36 7 -73 25 -105 50 -262 101 -386 126 -95 20 -142 23 -307 22
-224 -1 -295 -14 -435 -83 -230 -114 -357 -343 -326 -591 38 -299 223 -463
768 -681 365 -146 583 -271 747 -428 212 -205 301 -411 313 -721 20 -548 -301
-974 -855 -1136 -180 -52 -299 -67 -542 -68 -295 -1 -496 30 -750 114 -100 33
-272 113 -288 133 -7 8 10 79 53 220 34 114 65 210 68 213 3 3 65 -24 138 -60
286 -139 531 -192 843 -183 204 6 294 25 436 94 79 38 109 59 175 127 49 49
93 105 113 143 97 185 97 453 0 636 -44 83 -153 196 -253 263 -99 65 -307 166
-470 227 -346 129 -563 255 -736 427 -176 174 -268 367 -287 599 -50 603 359
1072 1025 1175 119 19 449 19 583 1z m-11413 -385 c63 -184 369 -1080 681
-1990 311 -910 567 -1665 570 -1678 l4 -22 -278 2 -278 3 -215 633 -214 632
-716 -2 -715 -3 -208 -632 -209 -633 -269 0 c-149 0 -270 2 -270 4 0 7 1337
3941 1359 3999 l11 27 316 -2 317 -3 114 -335z m13473 -375 l0 -415 378 -2
377 -3 0 -200 0 -200 -378 -3 -378 -2 4 -863 c3 -757 5 -870 20 -930 35 -145
94 -234 192 -285 46 -24 61 -27 190 -30 94 -2 164 2 215 11 41 8 77 13 79 11
3 -2 9 -90 15 -195 8 -140 8 -193 0 -200 -44 -37 -332 -75 -503 -66 -223 11
-362 67 -497 202 -95 94 -150 195 -183 335 -39 163 -41 233 -41 1132 l0 878
-225 0 -225 0 0 205 0 205 225 0 225 0 2 347 3 348 245 66 c135 37 248 67 253
68 4 1 7 -186 7 -414z m-9905 -380 c470 -97 820 -464 946 -994 62 -260 66
-609 9 -886 -93 -452 -341 -799 -700 -980 -390 -196 -867 -176 -1211 51 -69
45 -202 177 -235 232 -10 18 -22 32 -26 32 -4 0 -9 -354 -10 -787 l-3 -788
-257 -3 -258 -2 0 1567 c0 956 -5 1736 -12 1998 -6 237 -12 450 -12 475 l-1
45 236 3 236 2 6 -102 c4 -57 9 -169 13 -250 4 -82 9 -148 13 -148 3 0 26 30
50 65 182 271 470 441 821 485 102 12 298 5 395 -15z m3403 0 c483 -93 854
-503 962 -1062 81 -419 28 -877 -141 -1216 -70 -142 -140 -238 -254 -352 -179
-180 -378 -287 -635 -342 -126 -26 -393 -24 -516 4 -249 58 -472 197 -590 368
-20 30 -41 55 -46 55 -4 0 -8 -356 -8 -790 l0 -790 -257 2 -258 3 -7 1905 c-4
1048 -11 1965 -15 2038 -4 74 -6 136 -4 138 2 2 109 4 236 4 l232 0 7 -67 c3
-38 9 -150 12 -250 4 -101 10 -183 14 -183 3 0 29 32 56 72 106 156 292 310
464 384 95 41 239 80 348 93 102 13 297 6 400 -14z m9307 0 c191 -33 352 -93
498 -185 427 -269 655 -756 634 -1350 -16 -441 -154 -789 -416 -1050 -184
-183 -401 -303 -664 -365 -492 -117 -994 6 -1321 323 -289 282 -435 655 -436
1117 0 364 83 668 255 926 266 400 715 620 1230 604 72 -3 171 -12 220 -20z
m3217 7 c5 -5 7 -118 6 -253 l-3 -244 -45 5 c-81 9 -234 4 -290 -9 -98 -23
-210 -84 -288 -156 -125 -115 -205 -262 -255 -464 -20 -83 -21 -116 -26 -951
l-6 -865 -260 0 -260 0 -6 1390 c-4 765 -10 1416 -14 1448 l-7 57 230 0 231 0
5 -52 c3 -29 8 -156 11 -283 6 -214 14 -277 31 -229 21 59 87 190 125 245 54
81 167 193 244 244 144 95 300 138 469 130 55 -2 103 -8 108 -13z m1874 -7
c491 -94 815 -459 920 -1040 19 -105 27 -461 11 -517 l-7 -28 -1020 0 -1019 0
5 -67 c23 -285 101 -483 252 -644 169 -180 387 -271 687 -285 271 -14 577 34
803 125 39 16 54 18 57 8 24 -70 85 -361 78 -368 -6 -6 -59 -27 -119 -49 -374
-131 -879 -166 -1238 -85 -459 104 -798 414 -946 864 -57 174 -80 335 -80 553
0 862 491 1482 1230 1552 83 8 304 -3 386 -19z"/>
<path d="M29601 11089 c-133 -26 -270 -134 -340 -268 -72 -138 -86 -208 -86
-421 l0 -185 35 -100 c71 -200 184 -315 355 -360 263 -68 526 79 608 340 20
65 22 89 22 335 0 251 -1 268 -23 329 -88 244 -321 379 -571 330z"/>
<path d="M16025 11794 c-16 -2 -74 -9 -127 -15 l-98 -11 0 -998 0 -997 49 -7
c78 -10 419 -8 500 4 130 18 233 50 346 104 272 133 432 360 489 699 21 124
22 371 2 487 -77 432 -365 681 -845 730 -96 9 -247 11 -316 4z"/>
<path d="M18528 11094 c-194 -47 -341 -209 -403 -444 -23 -89 -31 -290 -15
-388 36 -225 161 -414 325 -492 291 -137 606 21 719 362 77 228 48 526 -68
725 -117 199 -334 292 -558 237z"/>
<path d="M25915 11098 c-144 -27 -282 -140 -354 -290 -127 -265 -113 -615 33
-842 44 -68 140 -158 204 -190 199 -101 415 -64 577 98 131 131 198 315 197
541 -2 467 -279 755 -657 683z"/>
<path d="M27950 10429 c-247 -26 -415 -112 -482 -247 -31 -64 -38 -198 -13
-273 40 -120 148 -189 293 -189 188 0 337 92 415 257 l32 68 3 198 4 197 -84
-1 c-46 -1 -121 -6 -168 -10z"/>
<path d="M32496 11095 c-190 -48 -333 -207 -398 -441 -18 -65 -22 -107 -22
-239 -1 -138 2 -171 22 -239 85 -297 305 -475 560 -453 224 19 398 180 478
442 25 82 28 104 27 250 0 133 -3 173 -21 239 -60 219 -194 382 -356 432 -73
23 -218 27 -290 9z"/>
<path d="M40399 11106 c-126 -36 -231 -126 -298 -256 -34 -65 -81 -205 -81
-242 0 -4 216 -8 480 -8 l480 0 0 29 c0 64 -32 190 -65 257 -45 91 -129 173
-212 204 -72 28 -234 36 -304 16z"/>
<path d="M17545 7513 c-73 -291 -147 -527 -349 -1127 -114 -335 -205 -611
-203 -613 2 -2 274 -2 603 -1 l600 3 -198 580 c-219 639 -282 838 -354 1117
-27 104 -52 188 -55 188 -3 0 -23 -66 -44 -147z"/>
<path d="M21111 6620 c-176 -24 -340 -110 -472 -247 -131 -135 -206 -284 -244
-486 -21 -110 -21 -621 0 -760 26 -174 111 -335 244 -460 88 -83 180 -137 301
-178 123 -41 298 -51 430 -25 474 96 740 560 698 1216 -26 393 -214 722 -493
861 -138 68 -318 99 -464 79z"/>
<path d="M24520 6619 c-339 -45 -607 -293 -707 -654 l-27 -100 -1 -345 c0
-377 5 -429 56 -560 32 -84 107 -200 172 -268 90 -94 243 -183 377 -219 102
-28 339 -25 444 5 332 95 549 373 620 792 84 499 -66 990 -369 1205 -167 119
-370 171 -565 144z"/>
<path d="M33849 6631 c-154 -34 -309 -121 -412 -235 -287 -314 -376 -895 -208
-1357 106 -290 313 -497 581 -581 65 -20 95 -23 220 -22 130 0 153 3 225 27
152 51 276 136 382 261 450 528 314 1569 -241 1841 -123 60 -188 76 -336 81
-97 3 -144 0 -211 -15z"/>
<path d="M38990 6660 c-164 -26 -281 -88 -405 -214 -147 -148 -243 -348 -280
-583 l-7 -43 771 0 771 0 0 33 c0 136 -42 314 -107 446 -83 173 -243 303 -423
346 -81 19 -247 27 -320 15z"/>
</g>
</svg>
