<?xml version="1.0" standalone="no"?>
<!DOCTYPE svg PUBLIC "-//W3C//DTD SVG 20010904//EN"
 "http://www.w3.org/TR/2001/REC-SVG-20010904/DTD/svg10.dtd">
<svg version="1.0" xmlns="http://www.w3.org/2000/svg"
 width="2048.000000pt" height="1320.000000pt" viewBox="0 0 2048.000000 1320.000000"
 preserveAspectRatio="xMidYMid meet">

<g transform="translate(0.000000,1320.000000) scale(0.100000,-0.100000)"
fill="#000000" stroke="none">
<path d="M550 9264 c-202 -53 -372 -227 -424 -435 -15 -59 -16 -262 -16 -2230
0 -2385 -4 -2221 63 -2358 47 -98 169 -217 267 -264 41 -19 100 -41 130 -48
46 -12 1473 -14 8865 -14 8382 0 8813 1 8874 18 205 56 364 213 428 422 17 57
18 152 18 2240 0 2051 -1 2184 -18 2244 -57 207 -222 372 -427 426 -83 22
-17676 21 -17760 -1z m5827 -873 c39 -18 86 -48 104 -67 l33 -34 -33 -34 -33
-34 -44 33 c-58 45 -106 60 -189 59 -94 -1 -158 -29 -225 -100 -73 -77 -84
-109 -84 -234 -1 -115 13 -156 70 -214 104 -104 225 -139 351 -101 93 28 192
140 193 218 l0 27 -150 0 -150 0 0 60 0 60 201 0 201 0 -4 -98 c-3 -81 -8
-107 -31 -154 -53 -109 -169 -189 -300 -209 -147 -22 -275 19 -376 120 -100
100 -141 229 -120 376 13 93 50 168 119 236 94 95 184 130 320 125 61 -2 90
-9 147 -35z m3763 10 c202 -77 317 -318 254 -532 -31 -105 -121 -212 -222
-263 -110 -56 -276 -56 -391 0 -72 35 -160 123 -195 195 -55 115 -57 265 -3
382 49 108 178 213 289 237 69 15 206 5 268 -19z m-2872 -33 l3 -48 -190 0
-191 0 0 -135 0 -135 175 0 175 0 0 -50 0 -50 -175 0 -175 0 0 -130 0 -130
190 0 190 0 0 -55 0 -55 -250 0 -250 0 0 413 c0 228 3 417 7 421 4 3 115 5
247 4 l241 -3 3 -47z m692 2 l0 -50 -115 0 -115 0 0 -370 0 -370 -60 0 -60 0
0 370 0 370 -115 0 -115 0 0 50 0 50 290 0 290 0 0 -50z m520 -370 l0 -420
-55 0 -55 0 0 420 0 420 55 0 55 0 0 -420z m700 370 l0 -49 -117 -3 -118 -3
-3 -367 -2 -368 -50 0 -50 0 0 370 0 370 -115 0 -115 0 0 50 0 50 285 0 285 0
0 -50z m1709 -274 l196 -318 5 318 5 319 58 3 57 3 0 -421 0 -421 -61 3 -61 3
-211 334 -212 335 -3 -337 -2 -337 -50 0 -50 0 0 413 c0 228 3 417 7 421 4 4
34 6 66 4 l59 -3 197 -319z m-9199 271 c57 -24 2035 -1144 2080 -1178 14 -10
176 -105 360 -210 184 -106 354 -205 377 -221 85 -58 126 -145 104 -225 -19
-71 -80 -124 -241 -211 -80 -43 -243 -132 -363 -197 l-219 -118 -296 297 -297
296 -860 -860 c-473 -473 -864 -859 -870 -857 -5 2 -21 25 -35 52 l-25 50 0
1635 0 1635 21 40 c15 29 36 48 74 67 65 34 116 36 190 5z m5181 -1382 c129
-26 239 -79 372 -178 l67 -51 -92 -93 -92 -92 -35 28 c-124 97 -241 141 -396
148 -133 6 -201 -8 -325 -68 -113 -55 -227 -168 -283 -279 -132 -265 -91 -575
104 -783 77 -84 162 -137 274 -174 69 -22 97 -26 205 -26 108 0 136 4 207 27
96 31 216 107 267 169 61 75 115 202 116 274 l0 23 -297 2 -298 3 0 125 0 125
432 3 433 2 4 -22 c35 -169 -12 -426 -105 -585 -48 -82 -209 -241 -294 -291
-228 -133 -555 -148 -815 -37 -284 122 -483 357 -556 660 -26 103 -23 296 5
400 130 486 611 788 1102 690z m4939 -910 l0 -875 -135 0 -135 0 0 875 0 875
135 0 135 0 0 -875z m2538 860 c234 -47 411 -226 443 -449 35 -236 -81 -457
-293 -560 -121 -59 -165 -66 -415 -66 l-223 0 0 -330 0 -330 -130 0 -130 0 0
875 0 875 335 0 c262 0 353 -3 413 -15z m852 -860 l0 -875 -130 0 -130 0 0
875 0 875 130 0 130 0 0 -875z m-4269 265 c63 -22 128 -58 167 -93 l22 -20 0
47 0 47 128 -3 127 -3 -1 -585 c0 -653 -1 -664 -69 -806 -85 -176 -256 -276
-480 -278 -165 -1 -290 47 -404 157 -53 52 -131 159 -131 182 0 15 214 109
218 95 2 -6 18 -32 35 -57 66 -98 176 -151 291 -140 120 11 198 63 247 163 28
56 33 78 37 164 3 55 1 100 -3 100 -4 0 -25 -16 -46 -35 -168 -151 -455 -128
-650 52 -72 67 -120 137 -157 231 -24 61 -26 80 -26 202 0 123 2 141 27 204
94 238 303 393 535 395 48 1 93 -6 133 -19z m5051 9 c29 -6 89 -28 134 -49
147 -70 245 -200 278 -365 14 -66 16 -138 14 -405 l-3 -325 -125 0 -125 0 -3
68 c-2 37 -4 67 -6 67 -1 0 -26 -23 -55 -51 -94 -91 -217 -128 -356 -108 -144
20 -268 106 -328 228 -29 60 -32 74 -32 156 1 70 6 100 22 137 98 214 428 317
686 213 l58 -23 -7 31 c-18 85 -80 153 -163 182 -63 21 -186 19 -236 -4 -42
-19 -73 -45 -98 -81 -15 -21 -15 -21 -128 25 -63 26 -116 49 -118 51 -9 9 31
76 70 119 54 58 129 101 221 125 83 22 219 26 300 9z m-7592 -24 c99 -26 181
-74 256 -149 180 -179 223 -463 108 -703 -62 -130 -193 -246 -334 -294 -90
-30 -260 -38 -349 -15 -113 29 -189 73 -277 161 -125 124 -174 244 -174 425 0
53 7 122 15 155 56 221 244 394 468 435 67 12 217 4 287 -15z m1300 0 c156
-42 297 -156 362 -295 48 -100 62 -166 62 -280 0 -52 -6 -120 -13 -150 -46
-192 -196 -357 -383 -421 -87 -30 -259 -38 -347 -15 -113 29 -189 73 -277 161
-91 90 -143 183 -165 292 -17 91 -7 263 19 337 72 199 248 348 455 386 67 12
217 4 287 -15z m2982 -4 c148 -51 264 -173 338 -351 l28 -68 -166 -71 c-92
-39 -268 -113 -392 -165 -123 -52 -226 -100 -228 -106 -4 -11 34 -66 71 -102
44 -42 124 -70 200 -71 110 0 169 23 245 100 l64 63 86 -62 c48 -34 91 -65 96
-69 14 -13 -42 -86 -104 -137 -67 -55 -173 -107 -249 -123 -90 -18 -253 -7
-333 24 -237 91 -378 305 -378 571 1 244 113 437 311 535 46 23 109 45 139 51
78 13 205 4 272 -19z m4152 -378 c83 -205 156 -371 161 -369 6 1 75 170 155
374 l145 372 137 0 c76 0 138 -3 138 -6 0 -4 -85 -203 -189 -443 -104 -240
-229 -530 -279 -646 -50 -115 -124 -286 -164 -380 l-74 -170 -132 -3 c-73 -1
-132 0 -132 3 0 3 59 136 131 295 l131 289 -67 153 c-66 150 -295 678 -361
831 l-33 78 141 -3 141 -3 151 -372z"/>
<path d="M9895 8321 c-84 -22 -180 -114 -214 -206 -47 -125 -19 -267 68 -348
78 -73 141 -100 232 -101 103 0 170 32 234 112 59 75 80 137 79 234 -1 128
-62 220 -187 285 -53 26 -158 39 -212 24z"/>
<path d="M13860 6411 l0 -301 208 0 c243 0 284 8 356 71 113 99 149 246 90
361 -26 49 -85 108 -138 136 -50 27 -54 27 -283 30 l-233 3 0 -300z"/>
<path d="M10707 6105 c-55 -21 -121 -71 -154 -118 -50 -71 -68 -131 -68 -232
1 -77 5 -99 29 -152 93 -203 342 -266 504 -128 75 65 133 226 117 330 -22 140
-81 233 -185 287 -56 29 -184 36 -243 13z"/>
<path d="M15741 5710 c-200 -72 -166 -288 49 -307 124 -12 248 63 305 183 39
82 33 94 -50 121 -93 29 -227 31 -304 3z"/>
<path d="M8106 6105 c-73 -28 -143 -92 -181 -166 -79 -153 -46 -343 78 -454
121 -110 296 -112 422 -7 149 125 167 388 37 533 -66 74 -128 102 -232 106
-58 2 -97 -2 -124 -12z"/>
<path d="M9407 6105 c-246 -94 -304 -441 -104 -620 90 -82 210 -105 324 -64
43 16 74 37 118 83 51 51 65 72 84 134 59 183 -11 371 -171 453 -55 29 -193
36 -251 14z"/>
<path d="M12396 6096 c-61 -31 -127 -94 -155 -151 -23 -46 -49 -151 -39 -160
3 -3 106 37 229 89 123 51 241 101 262 110 l39 16 -22 30 c-38 53 -103 83
-189 87 -65 3 -83 0 -125 -21z"/>
</g>
</svg>
